<svg xml:space="preserve" viewBox="379.89 401.73407999999995 302.40000000000003 209.52" width="302.40000000000003" y="0px" x="0px" xmlns:xlink="http://www.w3.org/1999/xlink" xmlns="http://www.w3.org/2000/svg" id="Layer_1" version="1.1" style="max-height: 500px" height="209.52">
<path d="M599.000000,1081.000000 &#10;&#9;C399.356323,1081.000000 200.212631,1081.000000 1.068943,1081.000000 &#10;&#9;C1.045955,1080.856323 1.002823,1080.712646 1.002822,1080.568970 &#10;&#9;C1.000007,720.777161 1.000000,360.985382 1.000000,1.096787 &#10;&#9;C360.893890,1.096787 720.787842,1.096787 1080.840820,1.096787 &#10;&#9;C1080.840820,360.999939 1080.840820,720.999939 1080.840820,1081.000000 &#10;&#9;C920.461914,1081.000000 759.980957,1081.000000 599.000000,1081.000000 &#10;M240.999374,553.749512 &#10;&#9;C243.308502,563.083557 249.191559,568.013306 258.651428,568.209595 &#10;&#9;C266.308105,568.368530 273.970459,568.260071 281.630310,568.258789 &#10;&#9;C303.111206,568.255127 324.592926,568.325378 346.071808,568.114868 &#10;&#9;C348.212280,568.093872 351.054413,566.856750 352.206390,565.222290 &#10;&#9;C352.934937,564.188538 351.516449,561.110046 350.374756,559.409302 &#10;&#9;C348.477417,556.582886 348.346466,549.008728 349.995483,545.742554 &#10;&#9;C351.422607,542.915771 352.836395,539.677124 352.859589,536.609924 &#10;&#9;C353.076019,507.970367 352.994568,479.328461 352.990845,450.687256 &#10;&#9;C352.989929,443.574432 351.690826,442.270935 344.554657,442.268463 &#10;&#9;C318.411224,442.259369 292.267761,442.253357 266.124329,442.270721 &#10;&#9;C251.606567,442.280365 241.589386,452.211670 240.876358,467.929199 &#10;&#9;C240.851562,482.855865 240.781784,497.782593 240.815338,512.709167 &#10;&#9;C240.845505,526.133728 240.989044,539.557983 240.999374,553.749512 &#10;M381.792511,476.555054 &#10;&#9;C381.792511,496.804596 381.792511,517.054138 381.792511,537.548950 &#10;&#9;C391.866180,537.548950 401.367462,538.032227 410.801544,537.441772 &#10;&#9;C427.133698,536.419678 439.420868,524.935730 441.845612,509.285889 &#10;&#9;C444.856537,489.852448 437.333832,474.403961 421.372345,468.241882 &#10;&#9;C408.589325,463.306854 395.231964,466.120758 381.793304,465.215790 &#10;&#9;C381.793304,469.294159 381.793304,472.437225 381.792511,476.555054 &#10;M566.094910,525.481079 &#10;&#9;C566.094910,529.397095 566.094910,533.313110 566.094910,537.625671 &#10;&#9;C575.840393,537.625671 584.816040,537.675781 593.790466,537.593201 &#10;&#9;C596.278564,537.570312 598.788635,537.305481 601.244934,536.892029 &#10;&#9;C613.930115,534.756958 620.756165,525.899109 619.020264,514.160645 &#10;&#9;C617.949341,506.918213 612.993469,503.160034 606.718933,500.406158 &#10;&#9;C607.264954,499.754822 607.508789,499.298889 607.887024,499.037445 &#10;&#9;C614.772522,494.278351 616.561951,487.585876 615.084900,479.755402 &#10;&#9;C613.634033,472.064362 608.356873,467.202057 601.180481,466.616913 &#10;&#9;C589.681152,465.679291 578.049438,466.365692 566.095276,466.365692 &#10;&#9;C566.095276,485.530884 566.095276,505.008606 566.094910,525.481079 &#10;M746.123535,515.500000 &#10;&#9;C746.123535,522.635681 746.123535,529.771301 746.123535,537.182983 &#10;&#9;C751.054810,537.182983 755.562622,537.182983 760.748291,537.182983 &#10;&#9;C760.748291,529.459717 760.748291,522.158569 760.748291,514.857422 &#10;&#9;C766.722656,521.297180 771.637817,527.961975 776.683105,534.526794 &#10;&#9;C777.626099,535.753723 779.035156,537.361816 780.323547,537.452637 &#10;&#9;C785.216431,537.797363 790.148132,537.591431 796.117310,537.591431 &#10;&#9;C788.643860,527.673035 781.886414,518.704834 775.121582,509.726837 &#10;&#9;C781.795959,501.722839 788.205444,494.036469 795.292236,485.537903 &#10;&#9;C790.574280,485.537903 787.079224,485.800293 783.641052,485.469727 &#10;&#9;C779.577271,485.079071 776.822388,486.404968 774.360229,489.732941 &#10;&#9;C770.360840,495.138947 765.854492,500.169861 761.562012,505.359039 &#10;&#9;C761.186035,505.237518 760.809998,505.115997 760.433960,504.994476 &#10;&#9;C760.433960,491.827332 760.433960,478.660217 760.433960,465.282532 &#10;&#9;C755.360657,465.282532 750.967529,465.282532 746.700195,465.282532 &#10;&#9;C746.447449,465.908905 746.217407,466.213623 746.216553,466.518982 &#10;&#9;C746.173157,482.512634 746.149292,498.506317 746.123535,515.500000 &#10;M650.659180,484.357666 &#10;&#9;C649.831238,484.441101 648.997803,484.488586 648.176086,484.613190 &#10;&#9;C631.589355,487.128174 621.363342,501.885132 624.992310,518.057678 &#10;&#9;C628.407532,533.277100 644.995667,542.386047 660.511353,537.561951 &#10;&#9;C673.314209,533.581360 680.970398,521.242004 679.108276,507.589783 &#10;&#9;C677.262878,494.060089 666.406677,484.906708 650.659180,484.357666 &#10;M697.807373,488.258514 &#10;&#9;C685.135864,496.624908 680.886902,511.917755 687.750916,524.453125 &#10;&#9;C694.595398,536.952759 710.707947,542.360535 723.575745,536.476929 &#10;&#9;C737.808838,529.969055 743.747925,513.547180 736.949707,499.497467 &#10;&#9;C730.187134,485.521362 713.013123,480.355713 697.807373,488.258514 &#10;M490.095978,488.382294 &#10;&#9;C478.593872,482.205475 465.960754,483.306671 457.073364,491.260742 &#10;&#9;C445.226440,501.863647 444.872162,520.341858 456.305878,531.296265 &#10;&#9;C467.492493,542.013977 486.915405,541.099670 496.584351,529.400269 &#10;&#9;C507.232361,516.516174 504.630402,498.543976 490.095978,488.382294 &#10;M514.598633,528.880371 &#10;&#9;C522.193665,537.604797 531.740234,540.709229 542.896484,538.063171 &#10;&#9;C550.291443,536.309265 555.938477,532.061707 559.086365,524.362671 &#10;&#9;C554.990967,522.615112 551.365967,521.068298 547.882568,519.581909 &#10;&#9;C540.440491,526.827209 532.548218,527.770081 527.063293,522.313477 &#10;&#9;C521.501770,516.780640 521.386169,506.325989 527.137024,501.121124 &#10;&#9;C533.445374,495.411713 540.820251,495.948090 547.898499,504.502625 &#10;&#9;C551.553589,502.943359 555.297974,501.346039 560.432190,499.155762 &#10;&#9;C556.560791,495.090393 553.861450,491.193970 550.221436,488.636230 &#10;&#9;C540.048218,481.487732 524.981018,483.337250 516.309387,492.237030 &#10;&#9;C506.769257,502.028198 505.908508,516.271851 514.598633,528.880371 &#10;z" stroke="none" opacity="1.000000" fill="#FFFFFF"/>
<path d="M241.102936,467.018188 &#10;&#9;C241.589386,452.211670 251.606567,442.280365 266.124329,442.270721 &#10;&#9;C292.267761,442.253357 318.411224,442.259369 344.554657,442.268463 &#10;&#9;C351.690826,442.270935 352.989929,443.574432 352.990845,450.687256 &#10;&#9;C352.994568,479.328461 353.076019,507.970367 352.859589,536.609924 &#10;&#9;C352.836395,539.677124 351.422607,542.915771 349.995483,545.742554 &#10;&#9;C348.346466,549.008728 348.477417,556.582886 350.374756,559.409302 &#10;&#9;C351.516449,561.110046 352.934937,564.188538 352.206390,565.222290 &#10;&#9;C351.054413,566.856750 348.212280,568.093872 346.071808,568.114868 &#10;&#9;C324.592926,568.325378 303.111206,568.255127 281.630310,568.258789 &#10;&#9;C273.970459,568.260071 266.308105,568.368530 258.651428,568.209595 &#10;&#9;C249.191559,568.013306 243.308502,563.083557 241.320694,553.060303 &#10;&#9;C241.759567,551.724854 241.979477,551.078735 241.979935,550.432495 &#10;&#9;C241.998749,523.869080 242.009903,497.305603 241.961334,470.742249 &#10;&#9;C241.959076,469.500397 241.401749,468.259521 241.102936,467.018188 &#10;M334.895508,507.951691 &#10;&#9;C334.900909,503.954895 334.915588,499.958130 334.909576,495.961334 &#10;&#9;C334.900452,489.868835 334.338379,489.275879 328.471313,489.239105 &#10;&#9;C324.641205,489.215088 320.791626,488.991638 316.985565,489.294525 &#10;&#9;C312.529144,489.649170 310.483459,488.311890 310.913422,483.474762 &#10;&#9;C311.295288,479.178986 310.917877,474.820618 311.012024,470.492859 &#10;&#9;C311.086029,467.090515 309.529510,465.654938 306.177704,465.727264 &#10;&#9;C301.683319,465.824249 297.182831,465.851868 292.689819,465.730072 &#10;&#9;C288.950562,465.628754 287.694305,467.468048 287.790497,470.959167 &#10;&#9;C287.918945,475.618683 287.697357,480.289520 287.882233,484.945312 &#10;&#9;C288.013397,488.247437 286.650818,489.384949 283.457367,489.276764 &#10;&#9;C278.633484,489.113373 273.799500,489.273407 268.970581,489.222931 &#10;&#9;C265.682190,489.188538 264.012756,490.656128 264.041870,494.014984 &#10;&#9;C264.079376,498.344513 264.085785,502.675018 264.038818,507.004364 &#10;&#9;C264.000824,510.507019 265.468018,512.188538 269.160950,512.044739 &#10;&#9;C273.816833,511.863464 278.492310,512.158997 283.145660,511.947632 &#10;&#9;C286.581329,511.791595 287.993591,513.002686 287.862579,516.520020 &#10;&#9;C287.676788,521.508789 287.916748,526.512207 287.803467,531.505493 &#10;&#9;C287.720184,535.177246 288.931122,537.140259 292.995087,536.927917 &#10;&#9;C297.313141,536.702209 301.656525,536.758301 305.980682,536.915527 &#10;&#9;C309.664398,537.049377 311.092438,535.377258 311.025482,531.832153 &#10;&#9;C310.928009,526.671509 311.085663,521.505676 310.970581,516.345703 &#10;&#9;C310.899658,513.167297 312.134094,511.831604 315.402008,511.954437 &#10;&#9;C320.224701,512.135681 325.082764,512.274048 329.876099,511.858368 &#10;&#9;C331.590118,511.709747 333.159882,509.897614 334.895508,507.951691 &#10;M253.475449,548.863586 &#10;&#9;C250.886795,554.939575 253.125229,559.064819 259.342468,559.083435 &#10;&#9;C285.822296,559.162659 312.302551,559.108093 338.782654,559.088501 &#10;&#9;C339.409363,559.088013 340.035980,558.923950 340.804626,558.816345 &#10;&#9;C340.804626,554.875671 340.804626,551.154480 340.804626,547.403076 &#10;&#9;C340.058228,547.235168 339.590546,547.038086 339.122711,547.037720 &#10;&#9;C312.142944,547.019287 285.163177,546.999023 258.183563,547.066101 &#10;&#9;C256.797607,547.069519 255.413559,547.836426 253.475449,548.863586 &#10;z" stroke="none" opacity="1.000000" fill="#0456D7"/>
<path d="M381.792908,476.067688 &#10;&#9;C381.793304,472.437225 381.793304,469.294159 381.793304,465.215790 &#10;&#9;C395.231964,466.120758 408.589325,463.306854 421.372345,468.241882 &#10;&#9;C437.333832,474.403961 444.856537,489.852448 441.845612,509.285889 &#10;&#9;C439.420868,524.935730 427.133698,536.419678 410.801544,537.441772 &#10;&#9;C401.367462,538.032227 391.866180,537.548950 381.792511,537.548950 &#10;&#9;C381.792511,517.054138 381.792511,496.804596 381.792908,476.067688 &#10;M396.701141,512.490051 &#10;&#9;C396.701141,516.261597 396.701141,520.033142 396.701141,523.998962 &#10;&#9;C407.334869,524.641968 417.576385,525.517578 423.669220,514.964233 &#10;&#9;C428.911224,505.884552 429.007446,496.381134 423.164825,487.598206 &#10;&#9;C416.860840,478.121674 406.940552,478.788910 396.699493,479.368256 &#10;&#9;C396.699493,490.286987 396.699493,500.890533 396.701141,512.490051 &#10;z" stroke="none" opacity="1.000000" fill="#0956D7"/>
<path d="M566.095093,524.983704 &#10;&#9;C566.095276,505.008606 566.095276,485.530884 566.095276,466.365692 &#10;&#9;C578.049438,466.365692 589.681152,465.679291 601.180481,466.616913 &#10;&#9;C608.356873,467.202057 613.634033,472.064362 615.084900,479.755402 &#10;&#9;C616.561951,487.585876 614.772522,494.278351 607.887024,499.037445 &#10;&#9;C607.508789,499.298889 607.264954,499.754822 606.718933,500.406158 &#10;&#9;C612.993469,503.160034 617.949341,506.918213 619.020264,514.160645 &#10;&#9;C620.756165,525.899109 613.930115,534.756958 601.244934,536.892029 &#10;&#9;C598.788635,537.305481 596.278564,537.570312 593.790466,537.593201 &#10;&#9;C584.816040,537.675781 575.840393,537.625671 566.094910,537.625671 &#10;&#9;C566.094910,533.313110 566.094910,529.397095 566.095093,524.983704 &#10;M588.491577,525.092346 &#10;&#9;C590.975220,525.040588 593.493774,525.233215 595.935181,524.885376 &#10;&#9;C600.781555,524.194824 603.922302,520.683044 604.047363,516.241333 &#10;&#9;C604.177002,511.634949 601.384949,507.983948 596.310974,507.487610 &#10;&#9;C591.137817,506.981598 585.876587,507.375702 580.520874,507.375702 &#10;&#9;C580.520874,513.420471 580.520874,518.986816 580.520874,525.092224 &#10;&#9;C583.003113,525.092224 585.269714,525.092224 588.491577,525.092346 &#10;M600.414490,488.737427 &#10;&#9;C602.190002,480.266083 597.025940,475.893005 580.289612,478.382263 &#10;&#9;C580.289612,480.933411 580.289612,483.560638 580.289612,486.187836 &#10;&#9;C580.289612,488.958649 580.289612,491.729492 580.289612,494.779999 &#10;&#9;C584.732605,494.779999 588.703613,495.457001 592.284485,494.565948 &#10;&#9;C595.154663,493.851746 597.551147,491.234161 600.414490,488.737427 &#10;z" stroke="none" opacity="1.000000" fill="#0956D7"/>
<path d="M746.123413,515.000000 &#10;&#9;C746.149292,498.506317 746.173157,482.512634 746.216553,466.518982 &#10;&#9;C746.217407,466.213623 746.447449,465.908905 746.700195,465.282532 &#10;&#9;C750.967529,465.282532 755.360657,465.282532 760.433960,465.282532 &#10;&#9;C760.433960,478.660217 760.433960,491.827332 760.433960,504.994476 &#10;&#9;C760.809998,505.115997 761.186035,505.237518 761.562012,505.359039 &#10;&#9;C765.854492,500.169861 770.360840,495.138947 774.360229,489.732941 &#10;&#9;C776.822388,486.404968 779.577271,485.079071 783.641052,485.469727 &#10;&#9;C787.079224,485.800293 790.574280,485.537903 795.292236,485.537903 &#10;&#9;C788.205444,494.036469 781.795959,501.722839 775.121582,509.726837 &#10;&#9;C781.886414,518.704834 788.643860,527.673035 796.117310,537.591431 &#10;&#9;C790.148132,537.591431 785.216431,537.797363 780.323547,537.452637 &#10;&#9;C779.035156,537.361816 777.626099,535.753723 776.683105,534.526794 &#10;&#9;C771.637817,527.961975 766.722656,521.297180 760.748291,514.857422 &#10;&#9;C760.748291,522.158569 760.748291,529.459717 760.748291,537.182983 &#10;&#9;C755.562622,537.182983 751.054810,537.182983 746.123535,537.182983 &#10;&#9;C746.123535,529.771301 746.123535,522.635681 746.123413,515.000000 &#10;z" stroke="none" opacity="1.000000" fill="#0956D7"/>
<path d="M651.101135,484.353027 &#10;&#9;C666.406677,484.906708 677.262878,494.060089 679.108276,507.589783 &#10;&#9;C680.970398,521.242004 673.314209,533.581360 660.511353,537.561951 &#10;&#9;C644.995667,542.386047 628.407532,533.277100 624.992310,518.057678 &#10;&#9;C621.363342,501.885132 631.589355,487.128174 648.176086,484.613190 &#10;&#9;C648.997803,484.488586 649.831238,484.441101 651.101135,484.353027 &#10;M652.414917,525.892517 &#10;&#9;C653.867920,525.622192 655.397705,525.556885 656.760681,525.046204 &#10;&#9;C662.849426,522.764709 666.108337,516.495850 665.108398,509.250092 &#10;&#9;C664.224121,502.842407 659.559204,498.000275 653.608765,497.313599 &#10;&#9;C647.223450,496.576752 641.630676,499.844543 639.523071,505.935944 &#10;&#9;C635.889343,516.438110 642.779358,526.145813 652.414917,525.892517 &#10;z" stroke="none" opacity="1.000000" fill="#0856D7"/>
<path d="M698.133057,488.089264 &#10;&#9;C713.013123,480.355713 730.187134,485.521362 736.949707,499.497467 &#10;&#9;C743.747925,513.547180 737.808838,529.969055 723.575745,536.476929 &#10;&#9;C710.707947,542.360535 694.595398,536.952759 687.750916,524.453125 &#10;&#9;C680.886902,511.917755 685.135864,496.624908 698.133057,488.089264 &#10;M724.657471,516.587646 &#10;&#9;C724.797546,513.946838 725.268738,511.273285 725.012085,508.671600 &#10;&#9;C724.379272,502.257782 719.425659,497.644226 713.170166,497.233154 &#10;&#9;C706.493469,496.794403 700.546570,501.176331 699.202637,507.525024 &#10;&#9;C697.504333,515.547607 700.984253,522.705627 707.763489,525.134094 &#10;&#9;C714.559570,527.568604 720.693665,524.700012 724.657471,516.587646 &#10;z" stroke="none" opacity="1.000000" fill="#0856D7"/>
<path d="M490.400146,488.584351 &#10;&#9;C504.630402,498.543976 507.232361,516.516174 496.584351,529.400269 &#10;&#9;C486.915405,541.099670 467.492493,542.013977 456.305878,531.296265 &#10;&#9;C444.872162,520.341858 445.226440,501.863647 457.073364,491.260742 &#10;&#9;C465.960754,483.306671 478.593872,482.205475 490.400146,488.584351 &#10;M488.874084,514.005188 &#10;&#9;C489.334198,504.663513 485.107117,498.328918 477.742798,497.323975 &#10;&#9;C470.072174,496.277252 464.015289,500.870667 462.480591,508.898407 &#10;&#9;C461.068573,516.284546 465.651611,523.988892 472.431610,525.626709 &#10;&#9;C479.870911,527.423706 486.187805,523.234436 488.874084,514.005188 &#10;z" stroke="none" opacity="1.000000" fill="#0856D7"/>
<path d="M514.362976,528.613098 &#10;&#9;C505.908508,516.271851 506.769257,502.028198 516.309387,492.237030 &#10;&#9;C524.981018,483.337250 540.048218,481.487732 550.221436,488.636230 &#10;&#9;C553.861450,491.193970 556.560791,495.090393 560.432190,499.155762 &#10;&#9;C555.297974,501.346039 551.553589,502.943359 547.898499,504.502625 &#10;&#9;C540.820251,495.948090 533.445374,495.411713 527.137024,501.121124 &#10;&#9;C521.386169,506.325989 521.501770,516.780640 527.063293,522.313477 &#10;&#9;C532.548218,527.770081 540.440491,526.827209 547.882568,519.581909 &#10;&#9;C551.365967,521.068298 554.990967,522.615112 559.086365,524.362671 &#10;&#9;C555.938477,532.061707 550.291443,536.309265 542.896484,538.063171 &#10;&#9;C531.740234,540.709229 522.193665,537.604797 514.362976,528.613098 &#10;z" stroke="none" opacity="1.000000" fill="#0956D7"/>
<path d="M240.989655,467.473694 &#10;&#9;C241.401749,468.259521 241.959076,469.500397 241.961334,470.742249 &#10;&#9;C242.009903,497.305603 241.998749,523.869080 241.979935,550.432495 &#10;&#9;C241.979477,551.078735 241.759567,551.724854 241.362305,552.676758 &#10;&#9;C240.989044,539.557983 240.845505,526.133728 240.815338,512.709167 &#10;&#9;C240.781784,497.782593 240.851562,482.855865 240.989655,467.473694 &#10;z" stroke="none" opacity="1.000000" fill="#0856D7"/>
<path d="M334.845490,508.398254 &#10;&#9;C333.159882,509.897614 331.590118,511.709747 329.876099,511.858368 &#10;&#9;C325.082764,512.274048 320.224701,512.135681 315.402008,511.954437 &#10;&#9;C312.134094,511.831604 310.899658,513.167297 310.970581,516.345703 &#10;&#9;C311.085663,521.505676 310.928009,526.671509 311.025482,531.832153 &#10;&#9;C311.092438,535.377258 309.664398,537.049377 305.980682,536.915527 &#10;&#9;C301.656525,536.758301 297.313141,536.702209 292.995087,536.927917 &#10;&#9;C288.931122,537.140259 287.720184,535.177246 287.803467,531.505493 &#10;&#9;C287.916748,526.512207 287.676788,521.508789 287.862579,516.520020 &#10;&#9;C287.993591,513.002686 286.581329,511.791595 283.145660,511.947632 &#10;&#9;C278.492310,512.158997 273.816833,511.863464 269.160950,512.044739 &#10;&#9;C265.468018,512.188538 264.000824,510.507019 264.038818,507.004364 &#10;&#9;C264.085785,502.675018 264.079376,498.344513 264.041870,494.014984 &#10;&#9;C264.012756,490.656128 265.682190,489.188538 268.970581,489.222931 &#10;&#9;C273.799500,489.273407 278.633484,489.113373 283.457367,489.276764 &#10;&#9;C286.650818,489.384949 288.013397,488.247437 287.882233,484.945312 &#10;&#9;C287.697357,480.289520 287.918945,475.618683 287.790497,470.959167 &#10;&#9;C287.694305,467.468048 288.950562,465.628754 292.689819,465.730072 &#10;&#9;C297.182831,465.851868 301.683319,465.824249 306.177704,465.727264 &#10;&#9;C309.529510,465.654938 311.086029,467.090515 311.012024,470.492859 &#10;&#9;C310.917877,474.820618 311.295288,479.178986 310.913422,483.474762 &#10;&#9;C310.483459,488.311890 312.529144,489.649170 316.985565,489.294525 &#10;&#9;C320.791626,488.991638 324.641205,489.215088 328.471313,489.239105 &#10;&#9;C334.338379,489.275879 334.900452,489.868835 334.909576,495.961334 &#10;&#9;C334.915588,499.958130 334.900909,503.954895 334.845490,508.398254 &#10;z" stroke="none" opacity="1.000000" fill="#F9FAFD"/>
<path d="M253.752029,548.555725 &#10;&#9;C255.413559,547.836426 256.797607,547.069519 258.183563,547.066101 &#10;&#9;C285.163177,546.999023 312.142944,547.019287 339.122711,547.037720 &#10;&#9;C339.590546,547.038086 340.058228,547.235168 340.804626,547.403076 &#10;&#9;C340.804626,551.154480 340.804626,554.875671 340.804626,558.816345 &#10;&#9;C340.035980,558.923950 339.409363,559.088013 338.782654,559.088501 &#10;&#9;C312.302551,559.108093 285.822296,559.162659 259.342468,559.083435 &#10;&#9;C253.125229,559.064819 250.886795,554.939575 253.752029,548.555725 &#10;z" stroke="none" opacity="1.000000" fill="#F9FAFD"/>
<path d="M396.700317,511.992065 &#10;&#9;C396.699493,500.890533 396.699493,490.286987 396.699493,479.368256 &#10;&#9;C406.940552,478.788910 416.860840,478.121674 423.164825,487.598206 &#10;&#9;C429.007446,496.381134 428.911224,505.884552 423.669220,514.964233 &#10;&#9;C417.576385,525.517578 407.334869,524.641968 396.701141,523.998962 &#10;&#9;C396.701141,520.033142 396.701141,516.261597 396.700317,511.992065 &#10;z" stroke="none" opacity="1.000000" fill="#F9FAFD"/>
<path d="M588.013916,525.092285 &#10;&#9;C585.269714,525.092224 583.003113,525.092224 580.520874,525.092224 &#10;&#9;C580.520874,518.986816 580.520874,513.420471 580.520874,507.375702 &#10;&#9;C585.876587,507.375702 591.137817,506.981598 596.310974,507.487610 &#10;&#9;C601.384949,507.983948 604.177002,511.634949 604.047363,516.241333 &#10;&#9;C603.922302,520.683044 600.781555,524.194824 595.935181,524.885376 &#10;&#9;C593.493774,525.233215 590.975220,525.040588 588.013916,525.092285 &#10;z" stroke="none" opacity="1.000000" fill="#F9FAFD"/>
<path d="M600.286194,489.099335 &#10;&#9;C597.551147,491.234161 595.154663,493.851746 592.284485,494.565948 &#10;&#9;C588.703613,495.457001 584.732605,494.779999 580.289612,494.779999 &#10;&#9;C580.289612,491.729492 580.289612,488.958649 580.289612,486.187836 &#10;&#9;C580.289612,483.560638 580.289612,480.933411 580.289612,478.382263 &#10;&#9;C597.025940,475.893005 602.190002,480.266083 600.286194,489.099335 &#10;z" stroke="none" opacity="1.000000" fill="#F9FAFD"/>
<path d="M652.004883,525.892822 &#10;&#9;C642.779358,526.145813 635.889343,516.438110 639.523071,505.935944 &#10;&#9;C641.630676,499.844543 647.223450,496.576752 653.608765,497.313599 &#10;&#9;C659.559204,498.000275 664.224121,502.842407 665.108398,509.250092 &#10;&#9;C666.108337,516.495850 662.849426,522.764709 656.760681,525.046204 &#10;&#9;C655.397705,525.556885 653.867920,525.622192 652.004883,525.892822 &#10;z" stroke="none" opacity="1.000000" fill="#F9FAFD"/>
<path d="M724.519897,516.974976 &#10;&#9;C720.693665,524.700012 714.559570,527.568604 707.763489,525.134094 &#10;&#9;C700.984253,522.705627 697.504333,515.547607 699.202637,507.525024 &#10;&#9;C700.546570,501.176331 706.493469,496.794403 713.170166,497.233154 &#10;&#9;C719.425659,497.644226 724.379272,502.257782 725.012085,508.671600 &#10;&#9;C725.268738,511.273285 724.797546,513.946838 724.519897,516.974976 &#10;z" stroke="none" opacity="1.000000" fill="#F9FAFD"/>
<path d="M488.799377,514.413269 &#10;&#9;C486.187805,523.234436 479.870911,527.423706 472.431610,525.626709 &#10;&#9;C465.651611,523.988892 461.068573,516.284546 462.480591,508.898407 &#10;&#9;C464.015289,500.870667 470.072174,496.277252 477.742798,497.323975 &#10;&#9;C485.107117,498.328918 489.334198,504.663513 488.799377,514.413269 &#10;z" stroke="none" opacity="1.000000" fill="#F9FAFD"/>
</svg>